<svg width="371" height="296" viewBox="0 0 371 296" fill="none" xmlns="http://www.w3.org/2000/svg">
<path d="M58.5333 2.80618C57.7333 4.40618 57.4667 7.33952 57.8667 9.47285C58.9333 15.3395 57.8667 16.9395 53.0667 16.2729C50.1333 15.8729 48.4 16.2729 47.0667 18.1395C45.0667 20.9395 44.6667 29.3395 46.6667 29.3395C47.4667 29.3395 48 28.6729 48 28.0062C48 27.2062 49.2 26.6729 50.6667 26.6729C54 26.6729 54.1333 28.9395 51.0667 29.7395C49.7333 30.1395 52 30.2729 56 30.0062C61.6 29.6062 62.4 29.7395 59.3333 30.5395C56.2667 31.4729 56 31.7395 58 32.0062C61.4667 32.4062 61.4667 32.4062 64.5333 31.2062C66.6667 30.4062 66.9333 30.6729 66.2667 32.4062C65.8667 33.6062 65.8667 34.6729 66.5333 34.6729C68.6667 34.6729 70.9333 30.6729 71.0667 26.4062C71.3333 22.9395 70.6667 21.7395 67.7333 20.2729C63.3333 18.1395 63.0667 15.6062 66.6667 11.0729C68.1333 9.20618 69.3333 6.67285 69.3333 5.47285C69.3333 -0.12715 61.2 -2.12715 58.5333 2.80618Z" fill="#4ECDC4"/>
<path d="M220.933 41.4728C219.067 42.5395 218.667 44.5395 218.8 52.4062C218.933 61.6062 218.4 63.4728 205.733 95.7395C195.067 122.673 192.533 130.406 193.2 133.74C194 137.74 194.8 138.14 251.333 160.273C282.8 172.54 309.867 182.673 311.333 182.673C315.467 182.673 317.733 179.473 322.667 166.673C341.467 117.073 345.467 108.273 350.8 103.473C360 95.0728 357.733 90.0062 342 84.1395C336.133 82.0062 308.267 71.2062 280 60.1395C251.733 49.0728 227.467 40.0062 226 40.0062C224.533 40.0062 222.267 40.6728 220.933 41.4728ZM288.267 65.0728C321.6 78.1395 350.267 89.6062 352 90.8062C353.6 91.8728 354.8 93.7395 354.533 94.9395C354.133 96.6728 341.6 92.1395 288.133 71.2062C251.867 56.9395 221.867 45.0728 221.467 44.6728C220.667 43.7395 224 41.3395 226.133 41.3395C226.933 41.3395 254.933 52.0062 288.267 65.0728ZM239.067 58.1395C245.733 60.8062 260.933 66.8062 272.667 71.3395C284.4 76.0062 301.2 82.5395 310 85.8728C337.067 96.4062 344 99.3395 344 100.273C344 100.94 343.2 101.34 342.4 101.34C339.067 101.34 226.133 56.4062 225.6 54.8062C224.933 52.6728 225.333 52.8062 239.067 58.1395ZM250.933 72.5395C278.133 83.2062 301.733 92.5395 329.733 103.34C336.8 106.14 342.667 109.073 342.667 109.873C342.667 112.94 315.867 179.206 314.267 180.273C313.467 180.806 311.733 181.206 310.667 181.206C309.6 181.206 283.2 171.206 252 158.94C195.733 136.806 195.333 136.673 194.933 132.673C194.533 128.94 196.933 122.14 214.8 76.2728C218 68.1395 221.067 61.3395 221.6 61.3395C222 61.3395 235.2 66.4062 250.933 72.5395Z" fill="#4ECDC4"/>
<path d="M226.133 72.2728C225.333 75.4728 228.133 78.6728 231.6 78.6728C234.133 78.6728 235.467 72.0062 233.2 70.5395C230 68.5395 227.067 69.2062 226.133 72.2728Z" fill="#4ECDC4"/>
<path d="M237.2 76.8062C235.733 80.9395 235.6 80.8062 240.133 82.0062C242.933 82.6728 243.733 82.2728 245.067 79.4728C246.4 76.5395 246.267 75.8728 244 74.6728C240.133 72.5395 238.667 73.0728 237.2 76.8062Z" fill="#4ECDC4"/>
<path d="M247.733 80.6728C246.4 83.6062 246.533 84.4062 248.133 85.4728C251.6 87.6062 254.533 86.8062 255.467 83.3395C256.4 79.4728 256.4 79.3395 252.4 78.1395C250 77.3395 249.067 77.8728 247.733 80.6728Z" fill="#4ECDC4"/>
<path d="M223.333 80.5395C222.933 81.7395 222.4 83.6062 222 84.6729C221.733 85.7395 222.267 86.6729 223.2 86.6729C224.267 86.6729 227.6 87.8729 230.8 89.3395C238.4 92.6729 239.333 92.6729 241.067 88.8062C242.533 85.6062 242.267 85.3395 235.6 82.8062C231.733 81.4729 227.6 79.8729 226.4 79.3395C224.8 78.6729 223.733 79.0729 223.333 80.5395Z" fill="#4ECDC4"/>
<path d="M258.4 84.6729C257.6 88.4062 260 91.0729 263.6 90.4062C265.067 90.1395 266.133 88.5395 266.4 86.5395C266.667 83.8729 266.133 82.8062 263.733 82.1395C259.2 80.9395 259.067 81.0729 258.4 84.6729Z" fill="#4ECDC4"/>
<path d="M269.2 88.9395C267.6 93.0728 268.667 94.6728 272.667 94.6728C278 94.6728 279.2 87.3395 273.867 86.2728C271.2 85.8728 270.267 86.4062 269.2 88.9395Z" fill="#4ECDC4"/>
<path d="M244.133 90.1395C242.267 94.2728 242.533 94.6728 247.467 95.0728C252 95.3395 253.6 91.2062 249.867 88.4062C246.533 86.0062 246 86.1395 244.133 90.1395Z" fill="#4ECDC4"/>
<path d="M219.467 90.2728C218.133 93.7395 218.533 96.0062 220.667 96.0062C221.733 96.0062 222.667 96.6728 222.667 97.4728C222.667 100.273 225.867 97.7395 226.8 94.2728C227.6 91.3395 227.2 90.6728 224 89.4728C220.933 88.5395 220 88.6728 219.467 90.2728Z" fill="#4ECDC4"/>
<path d="M279.867 92.2728C277.867 95.8728 279.333 98.6728 283.2 98.6728C286.4 98.6728 289.067 94.8062 287.467 92.1395C285.867 89.6062 281.333 89.6062 279.867 92.2728Z" fill="#4ECDC4"/>
<path d="M255.333 92.6728C254.933 93.7395 254.4 95.4728 254.133 96.5395C253.467 98.5395 259.2 100.673 261.333 99.3395C263.467 98.0062 262.933 94.4062 260.4 92.5395C257.333 90.1395 256 90.2728 255.333 92.6728Z" fill="#4ECDC4"/>
<path d="M230.267 94.2728C228.667 95.8728 229.333 99.0728 231.733 100.806C234.933 103.34 235.333 103.206 237.2 99.0728C238.533 96.2728 238.4 95.3395 237.067 94.5395C234.933 93.2062 231.467 93.0728 230.267 94.2728Z" fill="#4ECDC4"/>
<path d="M265.467 98.4062C264.133 101.073 264.267 102.006 265.6 102.94C268.4 104.673 272.267 103.606 273.333 100.54C274.267 98.4062 273.733 97.6062 270.667 96.4062C267.333 95.2062 266.8 95.3395 265.467 98.4062Z" fill="#4ECDC4"/>
<path d="M290.667 96.0062C290.667 96.8062 289.467 100.273 287.867 103.606C284.933 110.14 285.6 112.54 290.667 111.74C292.667 111.473 294.267 109.74 295.6 106.006C298.8 97.4728 298.533 95.3395 294.4 94.9395C292.267 94.6728 290.667 95.2062 290.667 96.0062ZM294.667 104.006C294.667 104.673 293.867 105.34 292.8 105.34C291.733 105.34 290.4 104.673 290 104.006C289.6 103.206 290.4 102.673 291.867 102.673C293.467 102.673 294.667 103.206 294.667 104.006Z" fill="#4ECDC4"/>
<path d="M240.133 100.273C239.333 102.673 239.733 103.606 242.4 104.94C246.533 107.206 246.133 107.34 247.733 102.806C248.8 99.6062 248.667 98.6728 247.067 98.1395C243.333 96.6728 241.2 97.3395 240.133 100.273Z" fill="#4ECDC4"/>
<path d="M301.733 99.7395C301.333 100.94 299.867 104.673 298.533 107.873C295.733 114.406 296 115.473 300.533 116.273C302.933 116.806 304.133 116.14 305.2 113.74C306.533 110.94 306.267 110.406 303.333 109.34C298.8 107.606 299.067 106.14 303.867 107.073C307.067 107.74 307.867 107.34 308.533 104.94C309.6 100.673 309.6 100.54 306 98.9395C303.067 97.6062 302.4 97.7395 301.733 99.7395Z" fill="#4ECDC4"/>
<path d="M215.333 101.34C214.133 105.073 215.2 106.273 220.667 107.206C223.2 107.74 225.333 108.673 225.333 109.206C225.333 109.873 226.933 110.673 228.8 111.073C231.467 111.606 232.4 110.94 233.467 108.273C234.133 106.54 234.533 104.806 234.4 104.54C233.6 103.74 219.2 98.6729 217.733 98.6729C216.933 98.6729 215.867 99.8729 215.333 101.34Z" fill="#4ECDC4"/>
<path d="M276 101.206C276 101.873 275.733 103.34 275.333 104.273C274.267 106.94 281.333 110.14 282.8 107.74C284.8 104.673 284 101.606 281.067 100.806C276.933 99.7395 276 99.8729 276 101.206Z" fill="#4ECDC4"/>
<path d="M251.6 102.14C249.2 104.54 252.533 110.54 256.4 110.673C257.333 110.673 260.4 104.006 259.733 103.206C258.667 102.14 252.4 101.34 251.6 102.14Z" fill="#4ECDC4"/>
<path d="M311.467 104.806C310 108.673 310.667 110.406 314.133 111.073C316.8 111.473 317.867 110.94 319.067 108.406C320.267 105.873 320.133 104.94 318.533 103.873C315.6 102.006 312.4 102.406 311.467 104.806Z" fill="#4ECDC4"/>
<path d="M261.6 108.54C260.267 111.473 260.4 112.006 262 112.006C263.067 112.006 264 112.54 264 113.34C264 116.006 267.6 114.54 269.2 111.206C271.067 107.073 271.067 107.206 266.533 106.006C263.733 105.34 262.933 105.74 261.6 108.54Z" fill="#4ECDC4"/>
<path d="M212 109.34C209.867 113.206 210.4 114.673 214.133 116.14C218.267 117.606 218.267 117.74 219.2 113.34C219.867 110.673 219.467 109.74 216.667 108.406C213.867 107.073 213.067 107.206 212 109.34Z" fill="#4ECDC4"/>
<path d="M236.8 108.806C235.333 112.673 236 114.406 239.467 115.073C242.133 115.606 243.067 114.94 244.133 112.273C245.067 109.873 244.933 108.54 243.733 107.74C240.933 106.006 237.733 106.54 236.8 108.806Z" fill="#4ECDC4"/>
<path d="M322.133 110.139C321.067 114.273 321.067 114.139 325.467 115.339C328.533 116.139 329.067 115.739 329.867 112.539C330.533 110.139 330.267 108.539 329.067 107.873C325.733 105.739 322.933 106.673 322.133 110.139Z" fill="#4ECDC4"/>
<path d="M272.133 112.14C271.333 114.673 271.6 115.74 273.6 117.073C274.933 118.14 276.933 118.673 277.867 118.273C280.267 117.34 281.467 110.673 279.2 110.673C278.267 110.673 276.667 110.273 275.467 109.873C274 109.34 272.933 110.14 272.133 112.14Z" fill="#4ECDC4"/>
<path d="M247.2 114.006C246.133 118.006 246.267 118.14 250.8 119.34C253.867 120.14 254.4 119.74 255.067 116.406C256.267 110.273 248.8 108.006 247.2 114.006Z" fill="#4ECDC4"/>
<path d="M222.667 113.206C222.667 113.873 222.267 115.34 221.867 116.54C220.8 119.206 226.533 121.74 229.067 119.74C231.733 117.473 230.933 113.74 227.733 112.806C223.6 111.74 222.667 111.873 222.667 113.206Z" fill="#4ECDC4"/>
<path d="M307.333 116.006C306.8 118.273 305.6 121.74 304.533 123.74C302.4 127.873 304.267 131.073 308.533 130.406C310.533 130.14 311.467 128.806 311.733 126.273C312.133 123.34 311.6 122.673 309.333 122.673C307.6 122.673 306.933 122.14 307.467 121.206C307.867 120.406 309.733 120.14 311.333 120.54C313.733 121.206 314.667 120.673 315.333 118.54C316.4 115.473 315.333 114.006 311.067 112.806C308.667 112.006 308.133 112.54 307.333 116.006Z" fill="#4ECDC4"/>
<path d="M282.267 118.006L280 122.673L275.333 120.406C271.2 118.406 270.4 118.406 269.333 120.006C266.8 123.873 267.867 126.406 272.4 127.34C274.667 127.873 276.933 128.806 277.333 129.473C277.733 130.006 279.733 130.673 281.867 130.94C285.467 131.34 285.867 130.806 288.533 123.74C291.467 115.606 291.467 115.473 287.2 114.14C285.067 113.473 284 114.273 282.267 118.006Z" fill="#4ECDC4"/>
<path d="M257.867 117.873C256.933 122.006 256.933 122.006 260.933 123.206C263.333 124.006 264.267 123.473 265.6 120.806C267.333 116.806 267.2 116.54 262.4 115.34C259.333 114.54 258.667 114.94 257.867 117.873Z" fill="#4ECDC4"/>
<path d="M232.8 118.94C231.733 123.206 231.733 124.006 233.467 124.006C234.133 124.006 244.8 127.873 257.2 132.673C279.733 141.473 282.667 142.273 282.667 140.14C282.667 139.473 282.933 138.006 283.467 136.94C284.133 135.073 283.067 134.54 251.333 122.273C233.467 115.34 233.733 115.473 232.8 118.94Z" fill="#4ECDC4"/>
<path d="M318.667 117.873C318.667 118.94 318.267 120.673 317.867 121.873C317.333 123.473 317.867 124.006 319.867 124.006C321.467 124.006 322.667 124.673 322.667 125.473C322.667 126.273 321.067 126.673 319.2 126.406C316.533 126.14 315.333 126.806 314.667 128.806C313.2 132.54 314.933 134.94 318.8 134.406C320.933 134.14 322.267 132.94 322.667 130.673C323.067 128.806 324.4 125.473 325.6 123.073L328 118.94L323.733 117.473C318.533 115.606 318.667 115.606 318.667 117.873Z" fill="#4ECDC4"/>
<path d="M293.6 120.54C292.667 122.806 292.667 124.14 293.733 125.206C296.4 127.873 299.867 126.806 300.8 123.34C301.733 119.473 301.733 119.34 297.867 118.14C295.733 117.473 294.8 118.14 293.6 120.54Z" fill="#4ECDC4"/>
<path d="M289.867 130.14C288.4 135.873 294.667 138.406 297.467 133.206C299.067 130.14 298.133 128.806 293.733 127.473C291.333 126.673 290.533 127.206 289.867 130.14Z" fill="#4ECDC4"/>
<path d="M300.267 134.406C299.067 138.006 299.2 138.54 301.733 139.206C306.8 140.54 307.733 140.14 308.267 136.006C308.667 133.34 308.267 132.006 307.2 132.006C306.267 132.006 304.667 131.606 303.6 131.206C302.267 130.806 301.2 131.873 300.267 134.406Z" fill="#4ECDC4"/>
<path d="M242 138.273C237.6 148.94 237.067 148.14 252.933 154.273C260.8 157.206 268.4 160.006 269.6 160.406C271.333 161.073 272.4 159.606 274.533 153.873C277.733 145.606 277.867 144.006 276 144.006C275.2 144.006 268.533 141.606 261.2 138.673C253.733 135.74 246.933 133.34 245.867 133.34C244.8 133.34 243.067 135.606 242 138.273Z" fill="#4ECDC4"/>
<path d="M309.333 143.073C306.4 150.806 306.4 151.206 308.8 152.939C310.133 153.873 311.733 154.539 312.4 154.273C313.333 154.006 320 139.606 320 137.873C320 137.739 318.267 136.939 316.133 136.273C312.267 134.939 312.267 134.939 309.333 143.073Z" fill="#4ECDC4"/>
<path d="M286.133 139.339C285.067 143.473 285.733 144.806 289.333 145.739C291.467 146.273 292.533 145.606 293.6 143.206C294.933 140.539 294.667 139.606 292.533 138.006C288.8 135.206 287.067 135.606 286.133 139.339Z" fill="#4ECDC4"/>
<path d="M296.667 143.873C294.933 147.473 294.933 147.74 298.267 149.206C302 150.94 303.2 150.273 304.533 146.006C305.067 144.006 304.4 142.94 302 141.74C298.933 140.406 298.4 140.54 296.667 143.873Z" fill="#4ECDC4"/>
<path d="M74.6667 52.0062C69.2 54.9395 62.1333 58.2728 58.9333 59.4728C53.4667 61.6062 53.2 61.6062 50.2667 59.0728C43.3333 52.8062 35.3333 51.6062 28.8 55.8728C19.7333 61.8728 17.3333 72.8062 23.3333 81.6062C26.5333 86.2728 31.3333 89.2062 32.9333 87.4728C33.4667 87.0728 32.8 86.6728 31.7333 86.6728C30.5333 86.6728 27.7333 84.5395 25.4667 82.0062C22.1333 78.1395 21.3333 76.0062 21.3333 71.0728C21.3333 65.8728 22 64.4062 26.5333 59.8728C30.8 55.6062 32.6667 54.6728 36.8 54.6728C43.7333 54.6728 50.1333 58.8062 52.6667 64.8062C53.7333 67.4728 55.0667 69.3395 55.6 68.8062C56.1333 68.4062 55.7333 67.2062 54.9333 66.4062C52.8 64.2728 52.9333 62.6728 55.3333 62.6728C56.5333 62.6728 57.3333 63.8728 57.3333 65.4728C57.3333 67.6062 57.7333 68.0062 59.0667 66.9395C59.8667 66.2728 67.3333 63.7395 75.3333 61.3395C91.3333 56.6728 96.2667 53.4728 93.8667 49.6062C91.3333 45.7395 85.3333 46.4062 74.6667 52.0062Z" fill="#4ECDC4"/>
<path d="M127.867 58.4062C117.6 62.0062 107.733 66.2728 105.2 68.2728L100.667 71.8728H105.333C108.8 72.0062 109.467 71.6062 108 70.6728C106.4 69.7395 106.4 69.0728 107.733 67.7395C109.067 66.4062 109.6 66.6728 110.267 69.0728C110.8 71.4728 111.6 71.8728 113.867 71.2062C127.467 66.9395 150.533 59.0728 152.4 57.8728C155.867 55.8728 153.867 52.0062 149.467 52.1395C147.6 52.1395 137.867 55.0728 127.867 58.4062ZM145.333 57.0728C145.333 60.1395 115.333 70.5395 113.067 68.2728C112.133 67.3395 111.867 66.4062 112.267 66.0062C112.933 65.3395 142.4 54.9395 144.4 54.8062C144.933 54.6728 145.333 55.7395 145.333 57.0728Z" fill="#4ECDC4"/>
<path d="M37.0667 58.2728C38 58.6728 39.2 58.5395 39.6 58.1395C40.1333 57.7395 39.3333 57.3395 37.8667 57.4728C36.4 57.4728 36 57.8728 37.0667 58.2728Z" fill="#4ECDC4"/>
<path d="M31.3333 61.3395C32.1333 62.6729 31.8667 62.9395 30.2667 62.2729C28.8 61.7395 27.6 62.4062 26.6667 64.0062C25.7333 65.6062 25.7333 66.6729 26.5333 66.6729C27.2 66.6729 28 65.8729 28.4 64.9395C28.6667 64.1395 28.8 64.5395 28.5333 66.0062C27.8667 69.8729 32.6667 77.0729 36.5333 78.1395C38.4 78.5395 41.4667 78.0062 43.7333 76.8062C46.9333 75.2062 47.8667 73.7395 48.2667 69.4729C48.6667 64.8062 48.4 64.1395 44.6667 62.9395C42.5333 62.1395 38.2667 61.0729 35.4667 60.5395C31.3333 59.8729 30.5333 60.0062 31.3333 61.3395Z" fill="#4ECDC4"/>
<path d="M44.9333 61.4728C45.8667 62.4062 46.9333 62.8062 47.3333 62.4062C47.7333 62.0062 47.0667 61.2062 45.7333 60.8062C43.8667 60.0062 43.7333 60.1395 44.9333 61.4728Z" fill="#4ECDC4"/>
<path d="M117.467 78.6728C95.8667 86.0062 78 92.2728 77.6 92.6728C76.6667 93.6062 92 140.006 93.2 140.006C93.6 139.873 99.4667 138.006 106.133 135.606C114 132.806 118 130.806 117.733 129.606C117.333 128.806 117.733 128.006 118.4 128.006C119.2 128.006 120 128.673 120.267 129.473C120.533 130.273 121.733 130.406 123.2 129.873C125.733 128.94 125.733 128.806 123.2 127.74C121.467 127.073 122.4 126.806 126 127.34C128.933 127.606 130.533 127.606 129.6 127.206C128.8 126.806 128.4 125.873 128.8 125.206C129.333 124.406 130.267 124.406 131.333 125.34C132.667 126.406 133.867 126.54 135.6 125.473C137.867 124.14 137.867 124.14 135.333 124.006C133.6 123.873 134.267 123.34 137.333 122.14C139.867 121.206 142.667 120.94 143.333 121.473C144.133 122.14 147.2 121.74 150 120.673C152.933 119.606 154.533 118.806 153.6 118.673C152.667 118.673 152.267 118.006 152.667 117.34C153.333 116.273 154.133 116.273 155.333 117.34C156.4 118.273 158.133 118.273 160.133 117.473C161.867 116.806 166.133 115.206 169.733 114.006C173.2 112.806 176 111.206 176 110.406C176 109.606 175.067 109.873 173.733 110.806C171.733 112.54 171.733 112.406 173.067 109.74C174 108.14 174.667 105.74 174.667 104.406C174.667 102.406 174.4 102.273 173.2 104.006C172.133 105.606 171.867 105.606 172.133 103.34C172.4 98.6728 172 97.2062 170.667 98.0062C168.267 99.4728 169.2 96.1395 171.867 93.4728C174.133 91.2062 174.267 90.2728 173.067 86.1395C171.867 82.4062 171.067 81.4728 169.067 82.1395C167.6 82.5395 166.667 82.1395 166.667 81.0728C166.667 79.7395 166.267 79.8728 165.2 81.3395C164.133 82.8062 164 82.2728 164.533 79.0728C164.933 76.6728 164.8 74.4062 164.133 74.1395C163.467 73.7395 162.667 71.6062 162.267 69.3395C161.6 66.6728 160.667 65.3395 159.067 65.4728C157.733 65.4728 139.067 71.4728 117.467 78.6728ZM160.4 67.6062C160.667 68.2728 161.333 70.2728 161.867 72.2728C162.533 75.2062 162.267 75.6062 160 75.0728C156.533 74.1395 154.133 71.2062 155.2 68.6728C156 66.5395 159.467 65.8728 160.4 67.6062ZM154 76.1395C153.6 76.6728 150.933 77.4728 148 78.0062C145.067 78.5395 142.4 79.3395 142 80.0062C141.6 80.6728 138.933 81.4728 136 82.0062C133.067 82.5395 130.4 83.3395 130 84.0062C129.6 84.6728 126.933 85.4728 124 86.0062C121.067 86.5395 118.4 87.3395 118 88.0062C117.6 88.5395 115.333 89.4728 112.8 89.8728C110.267 90.4062 106.4 91.6062 104.133 92.8062C98.6667 95.4728 94.1333 94.8062 93.6 91.2062C93.2 88.6728 96 87.4728 122.933 78.4062L152.667 68.4062L153.6 71.7395C154.133 73.6062 154.267 75.6062 154 76.1395ZM92.4 92.8062C92.9333 95.4728 92.4 96.5395 90.4 97.0728C88.1333 97.6062 87.8667 98.4062 88.6667 101.873C89.7333 106.14 89.7333 107.473 89.0667 113.34C88.8 115.74 89.4667 117.073 91.4667 117.873C93.3333 118.673 95.0667 121.74 96.5333 126.273C97.7333 130.14 99.7333 133.74 100.8 134.406C102.267 135.206 101.733 135.873 98 136.94C95.4667 137.74 93.3333 138.273 93.3333 138.273C93.3333 138.14 90 128.14 86 116.14C82 104.14 79.0667 93.8728 79.4667 93.4728C80.1333 92.8062 88.4 89.8728 90.8 89.4728C91.3333 89.3395 92 90.9395 92.4 92.8062ZM93.0667 114.406C93.3333 115.34 92.6667 116.006 91.4667 116.006C90.2667 116.006 89.3333 115.073 89.3333 113.873C89.3333 111.606 92.2667 112.006 93.0667 114.406ZM166.667 113.34C166.667 114.006 165.6 114.673 164.4 114.673C162.4 114.673 162.267 114.406 164 113.34C166.533 111.74 166.667 111.74 166.667 113.34ZM160.4 115.606C159.467 115.873 157.867 115.873 157.067 115.606C156.133 115.206 156.8 114.94 158.667 114.94C160.533 114.94 161.2 115.206 160.4 115.606ZM148.933 119.473C148.533 119.873 147.333 120.006 146.4 119.606C145.333 119.206 145.733 118.806 147.2 118.806C148.667 118.673 149.467 119.073 148.933 119.473ZM114.267 131.473C113.867 131.873 112.667 132.006 111.733 131.606C110.667 131.206 111.067 130.806 112.533 130.806C114 130.673 114.8 131.073 114.267 131.473Z" fill="#4ECDC4"/>
<path d="M149.067 74.2729C149.867 74.5395 151.467 74.5395 152.4 74.2729C153.2 73.8729 152.533 73.6062 150.667 73.6062C148.8 73.6062 148.133 73.8729 149.067 74.2729Z" fill="#4ECDC4"/>
<path d="M138.4 78.2728C139.333 78.6728 140.533 78.5395 140.933 78.1395C141.467 77.7395 140.667 77.3395 139.2 77.4728C137.733 77.4728 137.333 77.8728 138.4 78.2728Z" fill="#4ECDC4"/>
<path d="M131.333 80.0062C130.933 80.8062 131.467 80.9395 132.533 80.5395C134.933 79.6062 135.333 78.6728 133.467 78.6728C132.667 78.6728 131.733 79.2062 131.333 80.0062Z" fill="#4ECDC4"/>
<path d="M125.067 82.2729C125.867 82.5395 127.467 82.5395 128.4 82.2729C129.2 81.8729 128.533 81.6062 126.667 81.6062C124.8 81.6062 124.133 81.8729 125.067 82.2729Z" fill="#4ECDC4"/>
<path d="M114.4 86.2728C115.333 86.6728 116.533 86.5395 116.933 86.1395C117.467 85.7395 116.667 85.3395 115.2 85.4728C113.733 85.4728 113.333 85.8728 114.4 86.2728Z" fill="#4ECDC4"/>
<path d="M102.4 90.2728C103.333 90.6728 104.533 90.5395 104.933 90.1395C105.467 89.7395 104.667 89.3395 103.2 89.4728C101.733 89.4728 101.333 89.8728 102.4 90.2728Z" fill="#4ECDC4"/>
<path d="M97.0667 91.6062C98 92.0062 99.2 91.8728 99.6 91.4728C100.133 91.0728 99.3333 90.6728 97.8667 90.8062C96.4 90.8062 96 91.2062 97.0667 91.6062Z" fill="#4ECDC4"/>
<path d="M49.6 70.6728C49.6 73.2062 49.8667 74.2728 50.2667 72.9395C50.5333 71.7395 50.5333 69.6062 50.2667 68.2728C49.8667 67.0728 49.6 68.1395 49.6 70.6728Z" fill="#4ECDC4"/>
<path d="M24.1333 70.4062C24 74.4062 27.3333 80.9395 30.5333 82.6728C32 83.3395 35.4667 84.0062 38.4 84.0062C42.4 84.0062 44.2667 83.2062 46.8 80.2728L50 76.6728L46.5333 79.6062C38.9333 86.2728 27.7333 82.1395 25.3333 71.7395C24.5333 68.5395 24.2667 68.1395 24.1333 70.4062Z" fill="#4ECDC4"/>
<path d="M53.3333 75.8728C53.3333 77.3395 51.7333 80.4062 49.8667 82.9395L46.4 87.3395L50.5333 82.9395C54 79.3395 56.1333 73.3395 54 73.3395C53.6 73.3395 53.3333 74.5395 53.3333 75.8728Z" fill="#4ECDC4"/>
<path d="M43.0667 87.6062C43.6 88.0062 44.4 88.0062 44.9333 87.6062C45.3333 87.0728 44.9333 86.6728 44 86.6728C43.0667 86.6728 42.6667 87.0728 43.0667 87.6062Z" fill="#4ECDC4"/>
<path d="M37.0667 88.9395C38 89.3395 39.2 89.2062 39.6 88.8062C40.1333 88.4062 39.3333 88.0062 37.8667 88.1395C36.4 88.1395 36 88.5395 37.0667 88.9395Z" fill="#4ECDC4"/>
<path d="M36.9333 114.14C33.3333 121.206 30.6667 127.206 30.9333 127.34C32.6667 128.806 48.4 136.006 50 136.006C51.0667 136.006 52 134.806 52 133.34C52 131.873 52.9333 130.673 54 130.673C55.2 130.673 55.6 131.473 55.2 132.673C54.5333 134.273 54.9333 134.406 57.0667 133.74C58.6667 133.073 61.8667 128.806 64.4 123.606L68.9333 114.673L56.6667 108.006C49.8667 104.273 44.1333 101.34 43.8667 101.34C43.4667 101.34 40.4 107.073 36.9333 114.14ZM56.5333 109.606C65.3333 113.873 67.6 115.606 66.5333 116.94C65.3333 118.273 63.8667 117.873 59.0667 115.206C55.7333 113.34 52.6667 112.14 52.4 112.54C52 112.806 54.4 114.406 57.6 116.14C60.6667 117.74 63.6 119.206 63.8667 119.473C64.1333 119.74 63.3333 122.406 62 125.34C59.7333 130.54 57.0667 132.14 55.3333 129.34C54 127.073 52 127.873 50.4 131.206L48.9333 134.54L41.2 130.54C36.8 128.406 33.3333 126.006 33.3333 125.34C33.3333 123.073 41.3333 108.006 42.4 108.006C42.9333 108.006 44.1333 108.673 45.0667 109.606C46.1333 110.673 46.6667 110.673 46.6667 109.74C46.6667 108.94 45.7333 108.006 44.6667 107.473C42.4 106.673 41.8667 104.006 44 104.006C44.6667 104.006 50.4 106.54 56.5333 109.606Z" fill="#4ECDC4"/>
<path d="M139.733 123.606C140.667 124.006 141.867 123.873 142.267 123.473C142.8 123.073 142 122.673 140.533 122.806C139.067 122.806 138.667 123.206 139.733 123.606Z" fill="#4ECDC4"/>
<path d="M130 141.873C129.467 143.34 119.733 186.006 116.533 200.673C115.6 205.073 115.067 208.94 115.333 209.206C116.133 210.006 164.533 221.073 165.2 220.54C165.867 220.006 181.067 152.806 180.667 152.273C180.4 152.006 169.067 149.34 155.333 146.14C138.8 142.273 130.267 140.94 130 141.873ZM153.867 147.34C164.8 149.873 174.8 152.006 176.133 152.006C177.6 152.006 178.667 152.94 178.667 154.14C178.667 156.406 170.533 193.073 167.333 205.473C166.267 209.473 165.333 214.14 165.333 215.74C165.333 217.34 164.533 218.673 163.733 218.673C158.4 218.806 118.267 208.673 117.733 207.073C116.667 204.54 131.067 142.673 132.667 142.673C133.333 142.673 142.933 144.806 153.867 147.34Z" fill="#4ECDC4"/>
<path d="M137.467 158.806C137.733 163.073 137.733 163.073 138.267 159.606C138.8 156.406 139.333 155.873 141.733 156.54C143.333 156.94 145.467 157.34 146.4 157.34C147.333 157.34 148 159.073 148 161.34C148 166.273 145.2 167.74 139.867 165.74C137.733 164.94 136 164.673 136 165.34C136 168.406 147.333 168.94 148.533 165.873C149.6 162.94 149.6 157.606 148.267 156.806C147.733 156.54 145.067 155.873 142.267 155.34C137.333 154.406 137.333 154.406 137.467 158.806Z" fill="#4ECDC4"/>
<path d="M147.333 178.14C154.667 179.873 161.2 181.073 162 180.94C163.6 180.406 139.6 174.673 136.4 174.806C135.067 174.806 140 176.273 147.333 178.14Z" fill="#4ECDC4"/>
<path d="M136.667 182.006C138.933 183.073 142.133 183.873 144 183.873L147.333 183.74L144 182.806C142.133 182.273 138.933 181.34 136.667 180.94L132.667 180.14L136.667 182.006Z" fill="#4ECDC4"/>
<path d="M153.333 186.14C156.667 187.073 160 187.873 160.667 187.873C163.067 187.74 152.8 184.273 150 184.14C148.533 184.14 150 185.073 153.333 186.14Z" fill="#4ECDC4"/>
<path d="M137.2 188.806C140.533 189.873 145.333 190.94 147.867 191.34C150.533 191.74 148.533 190.806 143.333 189.34C132.8 186.406 128.267 186.006 137.2 188.806Z" fill="#4ECDC4"/>
<path d="M154.4 192.94C155.2 193.206 156.8 193.206 157.733 192.94C158.533 192.54 157.867 192.273 156 192.273C154.133 192.273 153.467 192.54 154.4 192.94Z" fill="#4ECDC4"/>
<path d="M133.333 194.54C134.4 195.206 138 196.006 141.333 196.54C145.333 197.073 146.133 196.94 144 196.14C138.533 194.406 131.067 193.206 133.333 194.54Z" fill="#4ECDC4"/>
<path d="M150 198.673C152.533 199.74 159.733 200.54 158.533 199.473C158.267 199.206 155.6 198.673 152.667 198.273C148.933 197.606 148.133 197.74 150 198.673Z" fill="#4ECDC4"/>
<path d="M138.667 202.673C144.133 204.14 149.867 205.206 151.333 205.206C152.8 205.206 149.467 204.006 144 202.673C138.533 201.206 132.8 200.14 131.333 200.14C129.867 200.14 133.2 201.34 138.667 202.673Z" fill="#4ECDC4"/>
<path d="M59.3333 147.606C57.2 148.673 54.2667 150.673 52.8 151.873C50.1333 154.273 45.3333 162.94 45.3333 165.606C45.3333 166.406 46.8 164.14 48.6667 160.406C52.4 153.073 56.2667 149.873 64.6667 147.206C68.6667 145.873 69.2 145.473 66.6667 145.473C64.8 145.473 61.6 146.406 59.3333 147.606Z" fill="#4ECDC4"/>
<path d="M77.6 147.34C81.0667 148.406 85.7333 151.206 88 153.473C92.4 157.873 96.5333 166.14 95.2 168.14C94.8 168.806 95.8667 169.34 97.4667 169.34C100 169.34 100.133 169.073 98.5333 167.206C97.4667 166.006 95.4667 162.54 94 159.606C90.2667 152.406 83.0667 146.673 76.5333 145.873L71.3333 145.34L77.6 147.34Z" fill="#4ECDC4"/>
<path d="M67.7333 152.94C69.3333 153.206 72 153.206 73.7333 152.94C75.3333 152.673 74 152.406 70.6667 152.406C67.3333 152.406 66 152.673 67.7333 152.94Z" fill="#4ECDC4"/>
<path d="M79.3333 155.339C80.8 156.406 83.4667 158.539 85.2 160.273C88.1333 163.206 88.2667 163.206 86.8 160.539C86.1333 158.939 84 156.673 82.1333 155.473C78 152.806 75.6 152.673 79.3333 155.339Z" fill="#4ECDC4"/>
<path d="M56.5333 158.273C52.6667 162.54 51.6 165.873 52.4 172.806C52.8 177.34 52.9333 177.206 53.0667 171.073C53.3333 165.34 54.1333 163.206 57.4667 159.34C62.2667 153.873 61.4667 152.94 56.5333 158.273Z" fill="#4ECDC4"/>
<path d="M60.4 160.673C54.4 166.94 54.2667 175.073 59.8667 181.206C63.2 184.806 64.6667 185.34 70.4 185.34C75.7333 185.34 78 184.54 81.2 181.873C84.8 178.806 85.3333 177.606 85.3333 171.34C85.3333 164.94 84.9333 163.873 80.6667 160.14C78 157.873 74.9333 156.006 73.6 156.14C72.2667 156.14 72.8 156.806 75.0667 157.606C79.6 159.206 79.7333 161.34 75.3333 161.34C67.2 161.34 61.3333 167.606 61.3333 176.14C61.3333 179.74 61.0667 180.14 59.3333 178.673C58.1333 177.606 57.3333 174.806 57.3333 171.206C57.3333 166.406 58.1333 164.806 62.2667 160.673C64.9333 158.14 66.5333 156.006 65.8667 156.006C65.2 156.006 62.6667 158.14 60.4 160.673Z" fill="#4ECDC4"/>
<path d="M88.1333 166.14C88.1333 167.606 88.5333 168.006 88.9333 166.94C89.3333 166.006 89.2 164.806 88.8 164.406C88.4 163.873 88 164.673 88.1333 166.14Z" fill="#4ECDC4"/>
<path d="M44.2667 170.673C44.2667 172.54 44.5333 173.206 44.9333 172.273C45.2 171.473 45.2 169.873 44.9333 168.94C44.5333 168.14 44.2667 168.806 44.2667 170.673Z" fill="#4ECDC4"/>
<path d="M207.333 178.406C199.333 182.54 192.533 186.806 192.267 187.74C192 188.673 194 187.873 196.933 185.873C204.4 180.806 222.267 172.006 225.2 172.006C228.4 172.006 230.133 176.006 226.933 176.14C222.267 176.273 219.6 177.206 218.533 178.94C217.867 179.873 217.333 180.273 217.333 179.606C217.333 178.14 204.667 184.806 200.533 188.673C197.2 191.74 195.467 192.54 193.067 192.14C191.2 191.873 192 194.14 198.667 207.073C202.4 214.14 205.333 221.473 205.333 223.34C205.333 225.073 206.4 227.206 207.867 227.873C209.2 228.673 211.333 231.34 212.533 234.006C216 241.206 219.067 241.206 234.8 233.34C250 225.74 253.333 223.34 253.333 220.14C253.333 218.806 250.667 212.54 247.333 206.006C244 199.34 241.333 192.673 241.333 191.073C241.333 189.473 240.4 187.34 239.333 186.14C238.133 185.073 237.333 183.74 237.467 183.206C237.867 181.206 227.2 170.673 224.667 170.673C223.2 170.806 215.467 174.14 207.333 178.406ZM233.333 182.406C233.333 183.073 236.667 189.74 240.667 197.206C244.667 204.806 248 211.073 248 211.34C248 212.006 214.4 229.34 213.067 229.34C211.867 229.34 196.533 199.073 197.333 198.273C198.933 196.806 230.133 181.473 231.733 181.473C232.533 181.34 233.333 181.873 233.333 182.406ZM234.667 226.673C234.667 227.34 233.733 228.006 232.667 228.006C231.6 228.006 230.667 227.34 230.667 226.673C230.667 225.873 231.6 225.34 232.667 225.34C233.733 225.34 234.667 225.873 234.667 226.673Z" fill="#4ECDC4"/>
<path d="M88.4 175.34C88 176.54 88 177.873 88.5333 178.273C88.9333 178.806 89.3333 178.14 89.3333 176.94C89.3333 175.873 90.1333 174.54 91.0667 174.273C92.2667 173.74 92.2667 173.473 90.9333 173.473C90 173.34 88.9333 174.273 88.4 175.34Z" fill="#4ECDC4"/>
<path d="M95.2 174.406C96.5333 176.54 90.8 186.273 85.8667 190.406C73.6 200.54 54.5333 195.74 47.8667 180.806C46.6667 177.74 45.4667 176.273 45.4667 177.34C45.3333 180.806 51.8667 189.873 57.0667 193.34C64 198.273 77.3333 198.14 84.8 193.206C91.0667 189.073 100.4 173.34 96.6667 173.34C95.4667 173.34 94.8 173.873 95.2 174.406Z" fill="#4ECDC4"/>
<path d="M54.4 180.94C57.6 186.806 62.5333 189.34 70.8 189.34C77.6 189.34 79.2 188.806 83.3333 185.206C86 182.806 87.8667 180.673 87.6 180.406C87.2 180.14 85.2 181.74 82.9333 184.006C79.3333 187.606 78 188.006 70.5333 188.006C62.8 188.006 62 187.74 57.6 182.94C55.0667 180.273 53.6 179.34 54.4 180.94Z" fill="#4ECDC4"/>
<path d="M282.667 190.273C278.8 196.94 268 227.606 268 232.273C268 234.273 268.667 236.273 269.6 236.806C272.267 238.54 276.8 231.34 280.667 219.206C282.667 212.673 284.8 206.806 285.467 206.14C286.133 205.34 286.667 203.74 286.667 202.406C286.667 201.073 287.333 200.006 288.133 200.006C288.933 200.006 289.2 200.94 288.8 202.14C288.4 203.34 287.733 205.873 287.333 207.74C286.933 209.74 287.6 208.673 288.8 205.473C290.533 201.073 290.667 199.473 289.333 198.673C288.4 198.14 288 195.473 288.267 192.006C288.8 184.54 286.533 183.873 282.667 190.273ZM276.4 223.606C277.467 225.473 274.8 230.673 272.667 230.673C270.667 230.673 269.733 225.34 271.6 223.606C272.8 222.406 275.733 222.406 276.4 223.606Z" fill="#4ECDC4"/>
<path d="M297.733 233.873C288 253.206 280 269.34 280 269.873C280 271.606 293.333 277.206 295.467 276.406C296.933 275.873 297.467 276.006 296.8 277.073C296.267 278.006 298 279.606 301.2 281.206C305.067 283.206 306.667 283.473 307.067 282.273C307.6 281.206 307.867 281.34 307.867 282.673C308 285.74 332.133 297.473 335.067 295.74C336.4 295.073 337.867 294.806 338.4 295.206C338.933 295.473 346.8 281.34 355.867 263.74C370 236.006 372 231.473 370.133 230.406C368.933 229.74 368.267 228.54 368.8 227.873C369.867 226.14 364.133 220.54 359.333 218.673C357.2 217.873 353.867 217.473 352 217.873C350.133 218.273 349.467 218.273 350.533 217.74C352.133 217.073 324.267 201.606 317.333 199.34C315.867 198.94 310.8 207.606 297.733 233.873ZM328.667 206.673C329.067 207.34 328.933 208.006 328.133 208.006C327.467 208.006 326.4 207.34 326 206.673C325.6 205.873 325.733 205.34 326.533 205.34C327.2 205.34 328.267 205.873 328.667 206.673ZM336.667 210.673C337.067 211.34 336.933 212.006 336.133 212.006C335.467 212.006 334.4 211.34 334 210.673C333.6 209.873 333.733 209.34 334.533 209.34C335.2 209.34 336.267 209.873 336.667 210.673ZM344.667 215.74C344.267 216.14 343.2 215.74 342.267 214.806C341.067 213.473 341.2 213.34 343.067 214.14C344.4 214.54 345.067 215.34 344.667 215.74ZM363.733 222.14C364 222.273 363.067 224.673 361.733 227.34C359.467 231.606 358.933 232.006 357.467 230.14C356.4 228.94 354.8 228.006 353.733 228.006C352.667 228.006 352 227.606 352.267 226.94C356.267 218.673 356.133 218.806 359.867 220.406C361.733 221.206 363.467 222.006 363.733 222.14ZM367.067 226.14C367.467 226.54 365.067 232.54 361.6 239.473C355.6 251.74 353.2 254.006 349.867 250.673C348.133 248.94 355.733 233.34 358.267 233.34C359.2 233.34 360.8 231.473 362 229.34C364 225.473 365.467 224.54 367.067 226.14ZM354.8 262.673C346.267 279.473 338.533 293.34 337.733 293.34C336.8 293.34 342.933 279.74 351.333 262.673C360 245.606 367.6 232.006 368.533 232.006C369.6 232.006 364.267 243.873 354.8 262.673ZM341.333 247.873C347.6 251.073 352.8 253.74 353.067 254.006C353.867 254.673 349.2 264.006 348 264.006C347.2 264.006 341.2 261.34 334.667 258.006L322.667 252.006L325.333 246.54C326.933 243.606 328.533 241.34 329.067 241.606C329.6 241.873 335.067 244.673 341.333 247.873ZM346.133 265.073C347.067 265.74 345.2 270.94 340.4 280.806C333.467 295.073 332.933 295.606 330 294.14L326.933 292.806L334.133 278.406C341.067 264.673 342.8 262.806 346.133 265.073ZM300.933 278.273C300.4 278.673 299.6 278.673 299.067 278.273C298.667 277.74 299.067 277.34 300 277.34C300.933 277.34 301.333 277.74 300.933 278.273ZM304.933 280.94C304.4 281.34 303.6 281.34 303.067 280.94C302.667 280.406 303.067 280.006 304 280.006C304.933 280.006 305.333 280.406 304.933 280.94ZM312.933 284.94C312.4 285.34 311.6 285.34 311.067 284.94C310.667 284.406 311.067 284.006 312 284.006C312.933 284.006 313.333 284.406 312.933 284.94ZM320.933 288.94C320.4 289.34 319.6 289.34 319.067 288.94C318.667 288.406 319.067 288.006 320 288.006C320.933 288.006 321.333 288.406 320.933 288.94Z" fill="#4ECDC4"/>
<path d="M18 207.606C2.13333 212.673 0 213.873 0 217.206C0 221.606 14.1333 261.873 15.7333 262.406C17.2 262.806 17.2 262.273 15.6 259.873C13.3333 256.273 1.33333 220.14 1.33333 216.94C1.33333 215.873 2.4 214.54 3.6 214.006C11.8667 210.94 34.6667 204.006 37.0667 204.006C39.4667 204.006 40.8 206.673 46.6667 224.673C50.2667 236.14 53.3333 246.54 53.3333 247.873C53.3333 250.673 52.1333 251.206 32.4 257.473C24.9333 259.873 18.9333 262.14 19.2 262.406C20 263.073 50.9333 253.206 53.0667 251.606C53.8667 250.94 54.6667 249.206 54.6667 247.74C54.6667 244.273 42.8 206.54 40.9333 204.273C38.9333 201.74 33.8667 202.406 18 207.606Z" fill="#4ECDC4"/>
<path d="M36.5333 212.673C37.3333 215.206 38.4 217.34 38.9333 217.34C39.3333 217.34 39.0667 215.206 38.2667 212.673C37.4667 210.14 36.5333 208.006 36 208.006C35.4667 208.006 35.7333 210.14 36.5333 212.673Z" fill="#4ECDC4"/>
<path d="M21.3333 213.34C15.0667 215.34 10.6667 217.073 11.4667 217.206C12.2667 217.34 16.8 216.14 21.3333 214.673C25.8667 213.206 30.5333 212.006 31.4667 212.006C32.5333 212.006 33.3333 211.34 33.3333 210.673C33.3333 209.873 33.2 209.34 33.0667 209.473C32.8 209.473 27.6 211.206 21.3333 213.34Z" fill="#4ECDC4"/>
<path d="M284.133 212.806C284.133 214.273 284.533 214.673 284.933 213.606C285.333 212.673 285.2 211.473 284.8 211.073C284.4 210.54 284 211.34 284.133 212.806Z" fill="#4ECDC4"/>
<path d="M23.7333 217.206C14.8 219.873 12 221.206 12 222.94C12 224.54 13.0667 225.34 15.0667 225.34C17.4667 225.34 17.6 225.073 16 223.873C14.5333 222.94 15.2 222.806 18.5333 223.473C22.4 224.14 22.9333 224.006 22.2667 222.006C21.4667 220.14 22 219.873 25.7333 220.673C29.0667 221.34 29.6 221.206 28 220.006C26.4 218.806 26.6667 218.54 29.6 219.073C31.6 219.34 34 219.073 34.9333 218.54C36.2667 217.606 36.2667 217.34 34.6667 217.34C32.9333 217.34 32.9333 217.206 34.6667 216.006C38.8 213.473 34.8 213.873 23.7333 217.206Z" fill="#4ECDC4"/>
<path d="M6.13333 218.406C5.33333 219.74 9.2 228.54 10.2667 227.606C10.6667 227.073 10.2667 225.873 9.33333 224.673C8.4 223.606 8 221.473 8.4 220.006C9.06666 217.473 7.46666 216.273 6.13333 218.406Z" fill="#4ECDC4"/>
<path d="M34.8 222.806C32.5333 223.74 32 224.54 32.9333 225.473C34.8 227.34 41.3333 225.473 41.3333 223.206C41.3333 221.073 39.3333 220.94 34.8 222.806Z" fill="#4ECDC4"/>
<path d="M25.0667 225.606C22.9333 226.273 21.3333 227.74 21.3333 228.94C21.3333 230.406 22.2667 230.673 25.7333 230.006C31.0667 228.806 31.2 228.673 29.7333 226.273C28.9333 224.806 27.7333 224.673 25.0667 225.606Z" fill="#4ECDC4"/>
<path d="M102.667 226.006C100.8 227.073 98.1333 228.54 96.6667 229.206C95.2 229.873 94.8 230.54 95.7333 230.54C96.5333 230.673 97.3333 231.606 97.3333 232.673C97.3333 237.34 100.533 241.34 105.467 242.673C112.667 244.673 117.067 242.54 119.733 235.873C121.333 231.74 122.4 230.673 124.533 230.94C126.8 231.206 127.467 232.406 127.733 237.606C128.267 245.206 131.333 248.006 139.467 248.006C144.8 248.006 149.333 245.073 149.333 241.606C149.333 240.673 150 240.006 150.667 240.006C153.333 240.006 146.133 232.14 142.267 230.673C136.933 228.94 134.4 229.073 138.667 231.073C142 232.54 141.867 232.54 137.067 233.073C134 233.34 130.8 232.673 128.8 231.206C126.4 229.74 124 229.34 120.8 229.873C118.267 230.406 114.8 230.14 113.2 229.473C111.467 228.806 108.8 227.74 107.333 227.206C104.933 226.406 105.067 226.14 108.667 225.34C112.267 224.406 112.4 224.273 109.333 224.14C107.467 224.14 104.533 224.94 102.667 226.006Z" fill="#4ECDC4"/>
<path d="M12.4 229.74C10.5333 230.806 9.86666 232.006 10.5333 233.073C11.8667 235.34 18.6667 232.806 18.6667 230.006C18.6667 227.606 16.4 227.473 12.4 229.74Z" fill="#4ECDC4"/>
<path d="M38.4 230.273C34.6667 231.206 35.3333 236.006 39.2 236.006C42.6667 236.006 46 232.806 44.6667 230.673C43.8667 229.34 42.4 229.206 38.4 230.273Z" fill="#4ECDC4"/>
<path d="M26.4 234.273C22.8 235.206 23.3333 240.006 27.0667 240.006C28.6667 240.006 30.9333 240.673 32 241.34C33.6 242.406 33.7333 242.94 32.2667 243.873C30.8 244.673 31.0667 245.206 33.2 245.74C35.0667 246.14 36 247.473 36 249.473C36 251.073 36.4 252.14 36.8 251.74C37.2 251.34 37.0667 248.806 36.5333 246.006C35.8667 242.006 34.8 240.806 30.2667 239.073C25.2 236.94 25.0667 236.806 28 235.74C30.1333 234.94 31.4667 235.073 32.2667 236.273C33.0667 237.606 33.3333 237.34 33.3333 235.606C33.3333 233.34 31.3333 232.94 26.4 234.273Z" fill="#4ECDC4"/>
<path d="M40.4 236.94C37.2 237.606 36.5333 239.473 38.4 242.273C40 244.673 46.6667 241.473 46.6667 238.273C46.6667 236.006 46 235.873 40.4 236.94Z" fill="#4ECDC4"/>
<path d="M14.4 238.273C9.86666 239.473 12.2667 243.34 18.4 244.673C20.6667 245.073 22.6667 246.14 22.6667 246.806C22.6667 248.673 17.6 248.273 16.9333 246.273C15.4667 242.273 15.0667 246.54 16.4 251.74C17.6 256.14 18.5333 257.34 20.6667 257.206C22.8 257.073 22.9333 256.94 21.0667 256.406C18.2667 255.74 18 253.873 20.4 252.94C21.3333 252.54 21.0667 252.14 19.7333 252.14C18.4 252.006 17.3333 251.34 17.3333 250.54C17.3333 247.606 23.2 250.006 24.1333 253.34C25.3333 257.606 25.6 253.606 24.5333 248.14C24 245.606 22.8 244.006 21.4667 244.006C18.4 243.873 12 240.14 14.9333 240.006C16.1333 240.006 17.6 239.34 18 238.673C18.8 237.34 18.2667 237.206 14.4 238.273Z" fill="#4ECDC4"/>
<path d="M20 239.34C20 240.406 20.5333 241.34 21.3333 241.34C22 241.34 22.2667 240.406 21.8667 239.34C21.3333 238.273 20.8 237.34 20.5333 237.34C20.2667 237.34 20 238.273 20 239.34Z" fill="#4ECDC4"/>
<path d="M27.2 244.273C27.7333 246.006 28.2667 248.54 28.4 250.006C28.5333 251.606 29.7333 252.673 31.3333 252.806C33.3333 252.94 33.4667 252.806 31.7333 252.406C28.6667 251.606 28.6667 249.34 31.6 249.34C33.4667 249.34 33.3333 248.94 30.9333 247.206C29.2 246.006 28.1333 244.273 28.5333 243.206C28.9333 242.14 28.5333 241.34 27.8667 241.34C26.9333 241.34 26.6667 242.54 27.2 244.273Z" fill="#4ECDC4"/>
<path d="M40.9333 244.94C39.0667 246.673 40.1333 249.34 42.5333 249.34C46.5333 249.34 49.3333 247.873 49.3333 245.873C49.3333 244.006 42.5333 243.206 40.9333 244.94Z" fill="#4ECDC4"/>
</svg>
